<svg width="354" height="101" viewBox="0 0 354 101" fill="none" xmlns="http://www.w3.org/2000/svg">
<mask id="path-1-outside-1" maskUnits="userSpaceOnUse" x="155" y="0" width="45" height="17" fill="black">
<rect fill="white" x="155" width="45" height="17"/>
<path d="M162.462 2.01172V14.0801H165.208C165.459 14.0801 165.64 14.1283 165.749 14.2246C165.859 14.3129 165.913 14.4333 165.913 14.5859C165.913 14.7304 165.859 14.8509 165.749 14.9472C165.64 15.0436 165.459 15.0918 165.208 15.0918H158.645C158.394 15.0918 158.213 15.0436 158.104 14.9472C157.995 14.8509 157.94 14.7304 157.94 14.5859C157.94 14.4333 157.995 14.3129 158.104 14.2246C158.213 14.1283 158.394 14.0801 158.645 14.0801H161.391V2.01172H157.059V5.5166C157.059 5.76551 157.009 5.94216 156.908 6.04655C156.815 6.15093 156.689 6.20312 156.53 6.20312C156.378 6.20312 156.253 6.15093 156.152 6.04655C156.052 5.94216 156 5.76551 156 5.5166V1H167.853V5.5166C167.853 5.76551 167.803 5.94216 167.702 6.04655C167.609 6.15093 167.483 6.20312 167.324 6.20312C167.164 6.20312 167.034 6.15093 166.933 6.04655C166.84 5.94216 166.795 5.76551 166.795 5.5166V2.01172H162.462ZM181.015 8.27479H174V14.0801H175.422C175.674 14.0801 175.854 14.1283 175.964 14.2246C176.074 14.3129 176.128 14.4333 176.128 14.5859C176.128 14.7304 176.074 14.8509 175.964 14.9472C175.854 15.0436 175.674 15.0918 175.422 15.0918H171.745C171.492 15.0918 171.312 15.0436 171.204 14.9472C171.094 14.8509 171.04 14.7304 171.04 14.5859C171.04 14.4333 171.094 14.3129 171.204 14.2246C171.312 14.1283 171.492 14.0801 171.745 14.0801H172.941V2.01172H172.286C172.026 2.01172 171.841 1.96755 171.732 1.87923C171.623 1.78287 171.569 1.65841 171.569 1.50586C171.569 1.3533 171.623 1.23285 171.732 1.14453C171.841 1.04817 172.026 1 172.286 1H175.422C175.674 1 175.854 1.04817 175.964 1.14453C176.074 1.23285 176.128 1.3533 176.128 1.50586C176.128 1.65841 176.074 1.78287 175.964 1.87923C175.854 1.96755 175.674 2.01172 175.422 2.01172H174V7.26297H181.015V2.01172H179.604C179.352 2.01172 179.172 1.96755 179.062 1.87923C178.954 1.78287 178.898 1.65841 178.898 1.50586C178.898 1.3533 178.949 1.23285 179.05 1.14453C179.159 1.04817 179.343 1 179.604 1H182.74C183.001 1 183.185 1.04817 183.295 1.14453C183.403 1.23285 183.459 1.3533 183.459 1.50586C183.459 1.65841 183.403 1.78287 183.295 1.87923C183.185 1.96755 183.001 2.01172 182.74 2.01172H182.085V14.0801H183.282C183.534 14.0801 183.714 14.1283 183.824 14.2246C183.932 14.3129 183.988 14.4333 183.988 14.5859C183.988 14.7304 183.932 14.8509 183.824 14.9472C183.714 15.0436 183.534 15.0918 183.282 15.0918H179.604C179.352 15.0918 179.172 15.0436 179.062 14.9472C178.954 14.8509 178.898 14.7304 178.898 14.5859C178.898 14.4333 178.949 14.3129 179.05 14.2246C179.159 14.1283 179.343 14.0801 179.604 14.0801H181.015V8.27479ZM189.479 8.28676V14.0801H197.615V11.0931C197.615 10.8522 197.662 10.6795 197.754 10.5752C197.855 10.4709 197.985 10.4186 198.144 10.4186C198.304 10.4186 198.43 10.4709 198.522 10.5752C198.622 10.6795 198.673 10.8522 198.673 11.0931V15.0918H186.998C186.745 15.0918 186.565 15.0436 186.456 14.9472C186.347 14.8509 186.292 14.7304 186.292 14.5859C186.292 14.4333 186.347 14.3129 186.456 14.2246C186.565 14.1283 186.745 14.0801 186.998 14.0801H188.421V2.01172H186.998C186.745 2.01172 186.565 1.96755 186.456 1.87923C186.347 1.78287 186.292 1.65841 186.292 1.50586C186.292 1.3533 186.347 1.23285 186.456 1.14453C186.565 1.04817 186.745 1 186.998 1H198.119V4.48079C198.119 4.72168 198.069 4.89431 197.969 4.9987C197.876 5.10308 197.749 5.15527 197.591 5.15527C197.431 5.15527 197.3 5.10308 197.2 4.9987C197.107 4.89431 197.061 4.72168 197.061 4.48079V2.01172H189.479V7.27505H193.27V6.13086C193.27 5.88997 193.32 5.71734 193.421 5.61295C193.521 5.50857 193.652 5.45638 193.812 5.45638C193.963 5.45638 194.089 5.50857 194.19 5.61295C194.29 5.71734 194.34 5.88997 194.34 6.13086V9.43104C194.34 9.67191 194.29 9.84445 194.19 9.94892C194.089 10.0533 193.963 10.1054 193.812 10.1054C193.652 10.1054 193.521 10.0533 193.421 9.94892C193.32 9.84445 193.27 9.67191 193.27 9.43104V8.28676H189.479Z"/>
</mask>
<path d="M162.462 2.01172V14.0801H165.208C165.459 14.0801 165.64 14.1283 165.749 14.2246C165.859 14.3129 165.913 14.4333 165.913 14.5859C165.913 14.7304 165.859 14.8509 165.749 14.9472C165.64 15.0436 165.459 15.0918 165.208 15.0918H158.645C158.394 15.0918 158.213 15.0436 158.104 14.9472C157.995 14.8509 157.94 14.7304 157.94 14.5859C157.94 14.4333 157.995 14.3129 158.104 14.2246C158.213 14.1283 158.394 14.0801 158.645 14.0801H161.391V2.01172H157.059V5.5166C157.059 5.76551 157.009 5.94216 156.908 6.04655C156.815 6.15093 156.689 6.20312 156.53 6.20312C156.378 6.20312 156.253 6.15093 156.152 6.04655C156.052 5.94216 156 5.76551 156 5.5166V1H167.853V5.5166C167.853 5.76551 167.803 5.94216 167.702 6.04655C167.609 6.15093 167.483 6.20312 167.324 6.20312C167.164 6.20312 167.034 6.15093 166.933 6.04655C166.84 5.94216 166.795 5.76551 166.795 5.5166V2.01172H162.462ZM181.015 8.27479H174V14.0801H175.422C175.674 14.0801 175.854 14.1283 175.964 14.2246C176.074 14.3129 176.128 14.4333 176.128 14.5859C176.128 14.7304 176.074 14.8509 175.964 14.9472C175.854 15.0436 175.674 15.0918 175.422 15.0918H171.745C171.492 15.0918 171.312 15.0436 171.204 14.9472C171.094 14.8509 171.04 14.7304 171.04 14.5859C171.04 14.4333 171.094 14.3129 171.204 14.2246C171.312 14.1283 171.492 14.0801 171.745 14.0801H172.941V2.01172H172.286C172.026 2.01172 171.841 1.96755 171.732 1.87923C171.623 1.78287 171.569 1.65841 171.569 1.50586C171.569 1.3533 171.623 1.23285 171.732 1.14453C171.841 1.04817 172.026 1 172.286 1H175.422C175.674 1 175.854 1.04817 175.964 1.14453C176.074 1.23285 176.128 1.3533 176.128 1.50586C176.128 1.65841 176.074 1.78287 175.964 1.87923C175.854 1.96755 175.674 2.01172 175.422 2.01172H174V7.26297H181.015V2.01172H179.604C179.352 2.01172 179.172 1.96755 179.062 1.87923C178.954 1.78287 178.898 1.65841 178.898 1.50586C178.898 1.3533 178.949 1.23285 179.05 1.14453C179.159 1.04817 179.343 1 179.604 1H182.74C183.001 1 183.185 1.04817 183.295 1.14453C183.403 1.23285 183.459 1.3533 183.459 1.50586C183.459 1.65841 183.403 1.78287 183.295 1.87923C183.185 1.96755 183.001 2.01172 182.74 2.01172H182.085V14.0801H183.282C183.534 14.0801 183.714 14.1283 183.824 14.2246C183.932 14.3129 183.988 14.4333 183.988 14.5859C183.988 14.7304 183.932 14.8509 183.824 14.9472C183.714 15.0436 183.534 15.0918 183.282 15.0918H179.604C179.352 15.0918 179.172 15.0436 179.062 14.9472C178.954 14.8509 178.898 14.7304 178.898 14.5859C178.898 14.4333 178.949 14.3129 179.05 14.2246C179.159 14.1283 179.343 14.0801 179.604 14.0801H181.015V8.27479ZM189.479 8.28676V14.0801H197.615V11.0931C197.615 10.8522 197.662 10.6795 197.754 10.5752C197.855 10.4709 197.985 10.4186 198.144 10.4186C198.304 10.4186 198.43 10.4709 198.522 10.5752C198.622 10.6795 198.673 10.8522 198.673 11.0931V15.0918H186.998C186.745 15.0918 186.565 15.0436 186.456 14.9472C186.347 14.8509 186.292 14.7304 186.292 14.5859C186.292 14.4333 186.347 14.3129 186.456 14.2246C186.565 14.1283 186.745 14.0801 186.998 14.0801H188.421V2.01172H186.998C186.745 2.01172 186.565 1.96755 186.456 1.87923C186.347 1.78287 186.292 1.65841 186.292 1.50586C186.292 1.3533 186.347 1.23285 186.456 1.14453C186.565 1.04817 186.745 1 186.998 1H198.119V4.48079C198.119 4.72168 198.069 4.89431 197.969 4.9987C197.876 5.10308 197.749 5.15527 197.591 5.15527C197.431 5.15527 197.3 5.10308 197.2 4.9987C197.107 4.89431 197.061 4.72168 197.061 4.48079V2.01172H189.479V7.27505H193.27V6.13086C193.27 5.88997 193.32 5.71734 193.421 5.61295C193.521 5.50857 193.652 5.45638 193.812 5.45638C193.963 5.45638 194.089 5.50857 194.19 5.61295C194.29 5.71734 194.34 5.88997 194.34 6.13086V9.43104C194.34 9.67191 194.29 9.84445 194.19 9.94892C194.089 10.0533 193.963 10.1054 193.812 10.1054C193.652 10.1054 193.521 10.0533 193.421 9.94892C193.32 9.84445 193.27 9.67191 193.27 9.43104V8.28676H189.479Z" fill="black"/>
<path d="M162.462 2.01172V14.0801H165.208C165.459 14.0801 165.64 14.1283 165.749 14.2246C165.859 14.3129 165.913 14.4333 165.913 14.5859C165.913 14.7304 165.859 14.8509 165.749 14.9472C165.64 15.0436 165.459 15.0918 165.208 15.0918H158.645C158.394 15.0918 158.213 15.0436 158.104 14.9472C157.995 14.8509 157.94 14.7304 157.94 14.5859C157.94 14.4333 157.995 14.3129 158.104 14.2246C158.213 14.1283 158.394 14.0801 158.645 14.0801H161.391V2.01172H157.059V5.5166C157.059 5.76551 157.009 5.94216 156.908 6.04655C156.815 6.15093 156.689 6.20312 156.53 6.20312C156.378 6.20312 156.253 6.15093 156.152 6.04655C156.052 5.94216 156 5.76551 156 5.5166V1H167.853V5.5166C167.853 5.76551 167.803 5.94216 167.702 6.04655C167.609 6.15093 167.483 6.20312 167.324 6.20312C167.164 6.20312 167.034 6.15093 166.933 6.04655C166.84 5.94216 166.795 5.76551 166.795 5.5166V2.01172H162.462ZM181.015 8.27479H174V14.0801H175.422C175.674 14.0801 175.854 14.1283 175.964 14.2246C176.074 14.3129 176.128 14.4333 176.128 14.5859C176.128 14.7304 176.074 14.8509 175.964 14.9472C175.854 15.0436 175.674 15.0918 175.422 15.0918H171.745C171.492 15.0918 171.312 15.0436 171.204 14.9472C171.094 14.8509 171.04 14.7304 171.04 14.5859C171.04 14.4333 171.094 14.3129 171.204 14.2246C171.312 14.1283 171.492 14.0801 171.745 14.0801H172.941V2.01172H172.286C172.026 2.01172 171.841 1.96755 171.732 1.87923C171.623 1.78287 171.569 1.65841 171.569 1.50586C171.569 1.3533 171.623 1.23285 171.732 1.14453C171.841 1.04817 172.026 1 172.286 1H175.422C175.674 1 175.854 1.04817 175.964 1.14453C176.074 1.23285 176.128 1.3533 176.128 1.50586C176.128 1.65841 176.074 1.78287 175.964 1.87923C175.854 1.96755 175.674 2.01172 175.422 2.01172H174V7.26297H181.015V2.01172H179.604C179.352 2.01172 179.172 1.96755 179.062 1.87923C178.954 1.78287 178.898 1.65841 178.898 1.50586C178.898 1.3533 178.949 1.23285 179.05 1.14453C179.159 1.04817 179.343 1 179.604 1H182.74C183.001 1 183.185 1.04817 183.295 1.14453C183.403 1.23285 183.459 1.3533 183.459 1.50586C183.459 1.65841 183.403 1.78287 183.295 1.87923C183.185 1.96755 183.001 2.01172 182.74 2.01172H182.085V14.0801H183.282C183.534 14.0801 183.714 14.1283 183.824 14.2246C183.932 14.3129 183.988 14.4333 183.988 14.5859C183.988 14.7304 183.932 14.8509 183.824 14.9472C183.714 15.0436 183.534 15.0918 183.282 15.0918H179.604C179.352 15.0918 179.172 15.0436 179.062 14.9472C178.954 14.8509 178.898 14.7304 178.898 14.5859C178.898 14.4333 178.949 14.3129 179.05 14.2246C179.159 14.1283 179.343 14.0801 179.604 14.0801H181.015V8.27479ZM189.479 8.28676V14.0801H197.615V11.0931C197.615 10.8522 197.662 10.6795 197.754 10.5752C197.855 10.4709 197.985 10.4186 198.144 10.4186C198.304 10.4186 198.43 10.4709 198.522 10.5752C198.622 10.6795 198.673 10.8522 198.673 11.0931V15.0918H186.998C186.745 15.0918 186.565 15.0436 186.456 14.9472C186.347 14.8509 186.292 14.7304 186.292 14.5859C186.292 14.4333 186.347 14.3129 186.456 14.2246C186.565 14.1283 186.745 14.0801 186.998 14.0801H188.421V2.01172H186.998C186.745 2.01172 186.565 1.96755 186.456 1.87923C186.347 1.78287 186.292 1.65841 186.292 1.50586C186.292 1.3533 186.347 1.23285 186.456 1.14453C186.565 1.04817 186.745 1 186.998 1H198.119V4.48079C198.119 4.72168 198.069 4.89431 197.969 4.9987C197.876 5.10308 197.749 5.15527 197.591 5.15527C197.431 5.15527 197.3 5.10308 197.2 4.9987C197.107 4.89431 197.061 4.72168 197.061 4.48079V2.01172H189.479V7.27505H193.27V6.13086C193.27 5.88997 193.32 5.71734 193.421 5.61295C193.521 5.50857 193.652 5.45638 193.812 5.45638C193.963 5.45638 194.089 5.50857 194.19 5.61295C194.29 5.71734 194.34 5.88997 194.34 6.13086V9.43104C194.34 9.67191 194.29 9.84445 194.19 9.94892C194.089 10.0533 193.963 10.1054 193.812 10.1054C193.652 10.1054 193.521 10.0533 193.421 9.94892C193.32 9.84445 193.27 9.67191 193.27 9.43104V8.28676H189.479Z" stroke="black" stroke-width="2" mask="url(#path-1-outside-1)"/>
<mask id="path-2-outside-2" maskUnits="userSpaceOnUse" x="0" y="31.0201" width="354" height="70" fill="black">
<rect fill="white" y="31.0201" width="354" height="70"/>
<path d="M30.9481 57.7721V41.4181H30.329L18.9534 67.9841L7.57774 41.4181H6.95866V57.7721V83.6721H1V32.0201H9.3576L18.876 54.8121H19.3403L28.8587 32.0201H36.9067V83.6721H30.9481V57.7721ZM87.0221 83.6721C84.5974 83.6721 82.8691 83.0801 81.8373 81.8961C80.8055 80.7121 80.1606 79.2321 79.9027 77.4561H79.5157C78.6387 79.6761 77.22 81.4275 75.2596 82.7102C73.3507 83.9435 70.7712 84.5602 67.521 84.5602C63.3423 84.5602 60.0147 83.5241 57.5384 81.4521C55.062 79.3801 53.8239 76.5435 53.8239 72.9422C53.8239 69.3901 55.1652 66.6521 57.8479 64.7281C60.5822 62.8041 64.9673 61.8421 71.0034 61.8421H79.5157V58.0681C79.5157 55.2561 78.6903 53.1595 77.0394 51.7781C75.3885 50.3475 73.0412 49.6321 69.9974 49.6321C67.3147 49.6321 65.1221 50.1501 63.4196 51.1861C61.7172 52.1728 60.35 53.5295 59.3182 55.2561L55.1394 52.2961C55.6553 51.3095 56.3518 50.3475 57.2288 49.4101C58.1059 48.4728 59.1892 47.6588 60.479 46.9681C61.7688 46.2281 63.2391 45.6608 64.8899 45.2661C66.5408 44.8221 68.3723 44.6001 70.3843 44.6001C75.079 44.6001 78.7935 45.7348 81.5278 48.0041C84.3136 50.2735 85.7066 53.4308 85.7066 57.4761V78.4922H91.2783V83.6721H87.0221ZM68.6044 79.6021C70.2037 79.6021 71.6483 79.4295 72.938 79.0841C74.2794 78.6895 75.4401 78.1961 76.4203 77.6041C77.4006 76.9628 78.1486 76.2228 78.6645 75.3841C79.232 74.4961 79.5157 73.5588 79.5157 72.5721V66.2822H71.0034C67.2889 66.2822 64.5804 66.7755 62.8779 67.7621C61.1755 68.7488 60.3242 70.1795 60.3242 72.0541V73.6081C60.3242 75.5815 61.0465 77.0861 62.491 78.1221C63.9871 79.1088 66.0249 79.6021 68.6044 79.6021ZM145.108 88.0382C145.108 91.8862 143.431 94.7228 140.078 96.5482C136.725 98.4228 131.694 99.3602 124.988 99.3602C118.539 99.3602 113.896 98.5462 111.059 96.9182C108.273 95.2901 106.88 92.9468 106.88 89.8882C106.88 87.8162 107.447 86.2128 108.582 85.0781C109.717 83.9435 111.317 83.1048 113.38 82.5621V81.6741C112.245 81.1315 111.368 80.4408 110.749 79.6021C110.13 78.7635 109.82 77.7028 109.82 76.4202C109.82 74.4468 110.491 72.9668 111.832 71.9802C113.225 70.9935 114.954 70.2535 117.017 69.7602V69.4641C114.541 68.4282 112.606 66.8988 111.213 64.8761C109.872 62.8535 109.201 60.4855 109.201 57.7721C109.201 55.8481 109.562 54.0721 110.285 52.4441C111.007 50.8161 112.039 49.4348 113.38 48.3001C114.773 47.1161 116.424 46.2035 118.333 45.5621C120.242 44.9208 122.357 44.6001 124.678 44.6001C127.67 44.6001 130.302 45.1181 132.572 46.1541V45.4881C132.572 44.0081 132.933 42.7748 133.655 41.7881C134.377 40.8015 135.615 40.3081 137.369 40.3081H144.721V45.4881H135.744V48.0781C137.189 49.2621 138.298 50.6681 139.072 52.2961C139.846 53.9241 140.233 55.7495 140.233 57.7721C140.233 59.6961 139.846 61.4721 139.072 63.1001C138.35 64.7281 137.318 66.1341 135.976 67.3181C134.635 68.4528 132.984 69.3408 131.024 69.9822C129.115 70.6235 127 70.9441 124.678 70.9441C124.008 70.9441 123.363 70.9195 122.744 70.8701C122.125 70.8208 121.506 70.7468 120.886 70.6481C120.267 70.7468 119.623 70.9195 118.952 71.1661C118.281 71.3635 117.662 71.6595 117.095 72.0541C116.527 72.3995 116.063 72.8188 115.702 73.3121C115.341 73.8055 115.16 74.3728 115.16 75.0142C115.16 76.1488 115.753 76.9135 116.94 77.3081C118.126 77.6535 119.674 77.8261 121.583 77.8261H130.405C135.564 77.8261 139.304 78.7635 141.626 80.6381C143.947 82.4635 145.108 84.9301 145.108 88.0382ZM139.304 88.3341C139.304 86.8048 138.659 85.5715 137.369 84.6341C136.08 83.7461 133.835 83.3021 130.637 83.3021H116.785C114.102 84.3381 112.761 86.0648 112.761 88.4822C112.761 90.1595 113.458 91.5901 114.85 92.7741C116.243 94.0075 118.565 94.6241 121.815 94.6241H127.851C131.462 94.6241 134.274 94.0815 136.286 92.9961C138.298 91.9601 139.304 90.4061 139.304 88.3341ZM124.678 66.3561C127.774 66.3561 130.044 65.6655 131.488 64.2841C132.984 62.9028 133.732 61.0775 133.732 58.8081V56.6621C133.732 54.3928 132.984 52.5921 131.488 51.2601C130.044 49.8788 127.774 49.1881 124.678 49.1881C121.583 49.1881 119.313 49.8788 117.868 51.2601C116.424 52.5921 115.702 54.3928 115.702 56.6621V58.8081C115.702 61.0775 116.424 62.9028 117.868 64.2841C119.313 65.6655 121.583 66.3561 124.678 66.3561ZM178.354 84.5602C174.175 84.5602 170.564 83.8941 167.52 82.5621C164.528 81.1808 161.974 79.3555 159.859 77.0862L164.038 73.6081C165.946 75.5321 168.036 77.0121 170.306 78.0481C172.576 79.0841 175.31 79.6021 178.509 79.6021C181.604 79.6021 184.132 79.0841 186.092 78.0481C188.104 76.9628 189.11 75.2855 189.11 73.0161C189.11 72.0295 188.904 71.2155 188.491 70.5742C188.13 69.8835 187.614 69.3408 186.944 68.9462C186.273 68.5515 185.525 68.2555 184.699 68.0581C183.874 67.8115 182.997 67.6141 182.068 67.4661L175.8 66.5781C174.407 66.3808 172.885 66.1095 171.234 65.7641C169.635 65.4188 168.165 64.8761 166.823 64.1361C165.482 63.3468 164.347 62.3108 163.419 61.0281C162.541 59.7455 162.103 58.0681 162.103 55.9961C162.103 54.0721 162.49 52.4195 163.264 51.0381C164.089 49.6075 165.224 48.4235 166.669 47.4861C168.113 46.4995 169.816 45.7841 171.776 45.3401C173.737 44.8468 175.878 44.6001 178.199 44.6001C181.81 44.6001 184.932 45.1428 187.563 46.2281C190.245 47.3135 192.541 48.8181 194.45 50.7421L190.426 54.3681C189.962 53.8255 189.368 53.2828 188.646 52.7401C187.975 52.1481 187.124 51.6301 186.092 51.1861C185.112 50.6928 183.951 50.2981 182.61 50.0021C181.269 49.7061 179.721 49.5581 177.967 49.5581C174.82 49.5581 172.395 50.0761 170.693 51.1121C169.042 52.1481 168.216 53.6528 168.216 55.6261C168.216 56.6128 168.397 57.4515 168.758 58.1421C169.171 58.7835 169.713 59.3015 170.383 59.6961C171.054 60.0908 171.802 60.4115 172.627 60.6581C173.504 60.8555 174.381 61.0281 175.258 61.1761L181.527 62.0641C182.971 62.2615 184.493 62.5328 186.092 62.8781C187.692 63.2235 189.162 63.7908 190.503 64.5801C191.845 65.3201 192.954 66.3315 193.831 67.6141C194.76 68.8968 195.224 70.5741 195.224 72.6461C195.224 76.4448 193.676 79.3801 190.581 81.4521C187.537 83.5241 183.461 84.5602 178.354 84.5602ZM211.831 83.6721V45.4881H217.557V49.9281H217.867C218.486 48.4481 219.363 47.1901 220.498 46.1541C221.633 45.1181 223.309 44.6001 225.528 44.6001C227.849 44.6001 229.578 45.1675 230.713 46.3021C231.848 47.3875 232.544 48.8181 232.802 50.5941H233.034C233.756 48.8675 234.788 47.4368 236.13 46.3021C237.471 45.1675 239.328 44.6001 241.701 44.6001C244.952 44.6001 247.118 45.6855 248.202 47.8561C249.337 50.0268 249.904 53.1348 249.904 57.1801V83.6721H244.178V58.1421C244.178 54.8861 243.817 52.6415 243.094 51.4081C242.424 50.1255 241.16 49.4841 239.302 49.4841C237.652 49.4841 236.31 50.0021 235.278 51.0381C234.247 52.0248 233.731 53.5541 233.731 55.6261V83.6721H228.004V58.1421C228.004 54.8861 227.643 52.6415 226.921 51.4081C226.25 50.1255 225.012 49.4841 223.206 49.4841C221.555 49.4841 220.188 50.0021 219.105 51.0381C218.073 52.0248 217.557 53.5541 217.557 55.6261V83.6721H211.831ZM298.937 83.6721C296.512 83.6721 294.784 83.0801 293.752 81.8961C292.72 80.7121 292.075 79.2321 291.817 77.4561H291.43C290.553 79.6761 289.135 81.4275 287.174 82.7102C285.265 83.9435 282.686 84.5602 279.436 84.5602C275.257 84.5602 271.929 83.5241 269.453 81.4521C266.977 79.3801 265.738 76.5435 265.738 72.9422C265.738 69.3901 267.08 66.6521 269.762 64.7281C272.497 62.8041 276.882 61.8421 282.918 61.8421H291.43V58.0681C291.43 55.2561 290.605 53.1595 288.954 51.7781C287.303 50.3475 284.956 49.6321 281.912 49.6321C279.229 49.6321 277.037 50.1501 275.334 51.1861C273.632 52.1728 272.265 53.5295 271.233 55.2561L267.054 52.2961C267.57 51.3095 268.266 50.3475 269.143 49.4101C270.02 48.4728 271.104 47.6588 272.394 46.9681C273.683 46.2281 275.154 45.6608 276.805 45.2661C278.455 44.8221 280.287 44.6001 282.299 44.6001C286.994 44.6001 290.708 45.7348 293.442 48.0041C296.228 50.2735 297.621 53.4308 297.621 57.4761V78.4922H303.193V83.6721H298.937ZM280.519 79.6021C282.118 79.6021 283.563 79.4295 284.853 79.0841C286.194 78.6895 287.355 78.1961 288.335 77.6041C289.315 76.9628 290.063 76.2228 290.579 75.3841C291.147 74.4961 291.43 73.5588 291.43 72.5721V66.2822H282.918C279.203 66.2822 276.495 66.7755 274.793 67.7621C273.09 68.7488 272.239 70.1795 272.239 72.0541V73.6081C272.239 75.5815 272.961 77.0861 274.406 78.1221C275.902 79.1088 277.94 79.6021 280.519 79.6021ZM321.193 83.6721V45.4881H327.383V51.7041H327.693C328.106 50.7668 328.622 49.8788 329.241 49.0401C329.86 48.1521 330.608 47.3875 331.485 46.7461C332.414 46.1048 333.497 45.5868 334.735 45.1921C335.973 44.7975 337.418 44.6001 339.069 44.6001C343.247 44.6001 346.601 45.8828 349.129 48.4481C351.657 50.9641 352.921 54.5408 352.921 59.1781V83.6721H346.73V60.2141C346.73 56.7115 345.93 54.1215 344.331 52.4441C342.732 50.7175 340.384 49.8541 337.289 49.8541C336.051 49.8541 334.838 50.0021 333.652 50.2981C332.465 50.5941 331.408 51.0381 330.479 51.6301C329.55 52.2221 328.802 52.9868 328.235 53.9241C327.667 54.8615 327.383 55.9468 327.383 57.1801V83.6721H321.193Z"/>
</mask>
<path d="M30.9481 57.7721V41.4181H30.329L18.9534 67.9841L7.57774 41.4181H6.95866V57.7721V83.6721H1V32.0201H9.3576L18.876 54.8121H19.3403L28.8587 32.0201H36.9067V83.6721H30.9481V57.7721ZM87.0221 83.6721C84.5974 83.6721 82.8691 83.0801 81.8373 81.8961C80.8055 80.7121 80.1606 79.2321 79.9027 77.4561H79.5157C78.6387 79.6761 77.22 81.4275 75.2596 82.7102C73.3507 83.9435 70.7712 84.5602 67.521 84.5602C63.3423 84.5602 60.0147 83.5241 57.5384 81.4521C55.062 79.3801 53.8239 76.5435 53.8239 72.9422C53.8239 69.3901 55.1652 66.6521 57.8479 64.7281C60.5822 62.8041 64.9673 61.8421 71.0034 61.8421H79.5157V58.0681C79.5157 55.2561 78.6903 53.1595 77.0394 51.7781C75.3885 50.3475 73.0412 49.6321 69.9974 49.6321C67.3147 49.6321 65.1221 50.1501 63.4196 51.1861C61.7172 52.1728 60.35 53.5295 59.3182 55.2561L55.1394 52.2961C55.6553 51.3095 56.3518 50.3475 57.2288 49.4101C58.1059 48.4728 59.1892 47.6588 60.479 46.9681C61.7688 46.2281 63.2391 45.6608 64.8899 45.2661C66.5408 44.8221 68.3723 44.6001 70.3843 44.6001C75.079 44.6001 78.7935 45.7348 81.5278 48.0041C84.3136 50.2735 85.7066 53.4308 85.7066 57.4761V78.4922H91.2783V83.6721H87.0221ZM68.6044 79.6021C70.2037 79.6021 71.6483 79.4295 72.938 79.0841C74.2794 78.6895 75.4401 78.1961 76.4203 77.6041C77.4006 76.9628 78.1486 76.2228 78.6645 75.3841C79.232 74.4961 79.5157 73.5588 79.5157 72.5721V66.2822H71.0034C67.2889 66.2822 64.5804 66.7755 62.8779 67.7621C61.1755 68.7488 60.3242 70.1795 60.3242 72.0541V73.6081C60.3242 75.5815 61.0465 77.0861 62.491 78.1221C63.9871 79.1088 66.0249 79.6021 68.6044 79.6021ZM145.108 88.0382C145.108 91.8862 143.431 94.7228 140.078 96.5482C136.725 98.4228 131.694 99.3602 124.988 99.3602C118.539 99.3602 113.896 98.5462 111.059 96.9182C108.273 95.2901 106.88 92.9468 106.88 89.8882C106.88 87.8162 107.447 86.2128 108.582 85.0781C109.717 83.9435 111.317 83.1048 113.38 82.5621V81.6741C112.245 81.1315 111.368 80.4408 110.749 79.6021C110.13 78.7635 109.82 77.7028 109.82 76.4202C109.82 74.4468 110.491 72.9668 111.832 71.9802C113.225 70.9935 114.954 70.2535 117.017 69.7602V69.4641C114.541 68.4282 112.606 66.8988 111.213 64.8761C109.872 62.8535 109.201 60.4855 109.201 57.7721C109.201 55.8481 109.562 54.0721 110.285 52.4441C111.007 50.8161 112.039 49.4348 113.38 48.3001C114.773 47.1161 116.424 46.2035 118.333 45.5621C120.242 44.9208 122.357 44.6001 124.678 44.6001C127.67 44.6001 130.302 45.1181 132.572 46.1541V45.4881C132.572 44.0081 132.933 42.7748 133.655 41.7881C134.377 40.8015 135.615 40.3081 137.369 40.3081H144.721V45.4881H135.744V48.0781C137.189 49.2621 138.298 50.6681 139.072 52.2961C139.846 53.9241 140.233 55.7495 140.233 57.7721C140.233 59.6961 139.846 61.4721 139.072 63.1001C138.35 64.7281 137.318 66.1341 135.976 67.3181C134.635 68.4528 132.984 69.3408 131.024 69.9822C129.115 70.6235 127 70.9441 124.678 70.9441C124.008 70.9441 123.363 70.9195 122.744 70.8701C122.125 70.8208 121.506 70.7468 120.886 70.6481C120.267 70.7468 119.623 70.9195 118.952 71.1661C118.281 71.3635 117.662 71.6595 117.095 72.0541C116.527 72.3995 116.063 72.8188 115.702 73.3121C115.341 73.8055 115.16 74.3728 115.16 75.0142C115.16 76.1488 115.753 76.9135 116.94 77.3081C118.126 77.6535 119.674 77.8261 121.583 77.8261H130.405C135.564 77.8261 139.304 78.7635 141.626 80.6381C143.947 82.4635 145.108 84.9301 145.108 88.0382ZM139.304 88.3341C139.304 86.8048 138.659 85.5715 137.369 84.6341C136.08 83.7461 133.835 83.3021 130.637 83.3021H116.785C114.102 84.3381 112.761 86.0648 112.761 88.4822C112.761 90.1595 113.458 91.5901 114.85 92.7741C116.243 94.0075 118.565 94.6241 121.815 94.6241H127.851C131.462 94.6241 134.274 94.0815 136.286 92.9961C138.298 91.9601 139.304 90.4061 139.304 88.3341ZM124.678 66.3561C127.774 66.3561 130.044 65.6655 131.488 64.2841C132.984 62.9028 133.732 61.0775 133.732 58.8081V56.6621C133.732 54.3928 132.984 52.5921 131.488 51.2601C130.044 49.8788 127.774 49.1881 124.678 49.1881C121.583 49.1881 119.313 49.8788 117.868 51.2601C116.424 52.5921 115.702 54.3928 115.702 56.6621V58.8081C115.702 61.0775 116.424 62.9028 117.868 64.2841C119.313 65.6655 121.583 66.3561 124.678 66.3561ZM178.354 84.5602C174.175 84.5602 170.564 83.8941 167.52 82.5621C164.528 81.1808 161.974 79.3555 159.859 77.0862L164.038 73.6081C165.946 75.5321 168.036 77.0121 170.306 78.0481C172.576 79.0841 175.31 79.6021 178.509 79.6021C181.604 79.6021 184.132 79.0841 186.092 78.0481C188.104 76.9628 189.11 75.2855 189.11 73.0161C189.11 72.0295 188.904 71.2155 188.491 70.5742C188.13 69.8835 187.614 69.3408 186.944 68.9462C186.273 68.5515 185.525 68.2555 184.699 68.0581C183.874 67.8115 182.997 67.6141 182.068 67.4661L175.8 66.5781C174.407 66.3808 172.885 66.1095 171.234 65.7641C169.635 65.4188 168.165 64.8761 166.823 64.1361C165.482 63.3468 164.347 62.3108 163.419 61.0281C162.541 59.7455 162.103 58.0681 162.103 55.9961C162.103 54.0721 162.49 52.4195 163.264 51.0381C164.089 49.6075 165.224 48.4235 166.669 47.4861C168.113 46.4995 169.816 45.7841 171.776 45.3401C173.737 44.8468 175.878 44.6001 178.199 44.6001C181.81 44.6001 184.932 45.1428 187.563 46.2281C190.245 47.3135 192.541 48.8181 194.45 50.7421L190.426 54.3681C189.962 53.8255 189.368 53.2828 188.646 52.7401C187.975 52.1481 187.124 51.6301 186.092 51.1861C185.112 50.6928 183.951 50.2981 182.61 50.0021C181.269 49.7061 179.721 49.5581 177.967 49.5581C174.82 49.5581 172.395 50.0761 170.693 51.1121C169.042 52.1481 168.216 53.6528 168.216 55.6261C168.216 56.6128 168.397 57.4515 168.758 58.1421C169.171 58.7835 169.713 59.3015 170.383 59.6961C171.054 60.0908 171.802 60.4115 172.627 60.6581C173.504 60.8555 174.381 61.0281 175.258 61.1761L181.527 62.0641C182.971 62.2615 184.493 62.5328 186.092 62.8781C187.692 63.2235 189.162 63.7908 190.503 64.5801C191.845 65.3201 192.954 66.3315 193.831 67.6141C194.76 68.8968 195.224 70.5741 195.224 72.6461C195.224 76.4448 193.676 79.3801 190.581 81.4521C187.537 83.5241 183.461 84.5602 178.354 84.5602ZM211.831 83.6721V45.4881H217.557V49.9281H217.867C218.486 48.4481 219.363 47.1901 220.498 46.1541C221.633 45.1181 223.309 44.6001 225.528 44.6001C227.849 44.6001 229.578 45.1675 230.713 46.3021C231.848 47.3875 232.544 48.8181 232.802 50.5941H233.034C233.756 48.8675 234.788 47.4368 236.13 46.3021C237.471 45.1675 239.328 44.6001 241.701 44.6001C244.952 44.6001 247.118 45.6855 248.202 47.8561C249.337 50.0268 249.904 53.1348 249.904 57.1801V83.6721H244.178V58.1421C244.178 54.8861 243.817 52.6415 243.094 51.4081C242.424 50.1255 241.16 49.4841 239.302 49.4841C237.652 49.4841 236.31 50.0021 235.278 51.0381C234.247 52.0248 233.731 53.5541 233.731 55.6261V83.6721H228.004V58.1421C228.004 54.8861 227.643 52.6415 226.921 51.4081C226.25 50.1255 225.012 49.4841 223.206 49.4841C221.555 49.4841 220.188 50.0021 219.105 51.0381C218.073 52.0248 217.557 53.5541 217.557 55.6261V83.6721H211.831ZM298.937 83.6721C296.512 83.6721 294.784 83.0801 293.752 81.8961C292.72 80.7121 292.075 79.2321 291.817 77.4561H291.43C290.553 79.6761 289.135 81.4275 287.174 82.7102C285.265 83.9435 282.686 84.5602 279.436 84.5602C275.257 84.5602 271.929 83.5241 269.453 81.4521C266.977 79.3801 265.738 76.5435 265.738 72.9422C265.738 69.3901 267.08 66.6521 269.762 64.7281C272.497 62.8041 276.882 61.8421 282.918 61.8421H291.43V58.0681C291.43 55.2561 290.605 53.1595 288.954 51.7781C287.303 50.3475 284.956 49.6321 281.912 49.6321C279.229 49.6321 277.037 50.1501 275.334 51.1861C273.632 52.1728 272.265 53.5295 271.233 55.2561L267.054 52.2961C267.57 51.3095 268.266 50.3475 269.143 49.4101C270.02 48.4728 271.104 47.6588 272.394 46.9681C273.683 46.2281 275.154 45.6608 276.805 45.2661C278.455 44.8221 280.287 44.6001 282.299 44.6001C286.994 44.6001 290.708 45.7348 293.442 48.0041C296.228 50.2735 297.621 53.4308 297.621 57.4761V78.4922H303.193V83.6721H298.937ZM280.519 79.6021C282.118 79.6021 283.563 79.4295 284.853 79.0841C286.194 78.6895 287.355 78.1961 288.335 77.6041C289.315 76.9628 290.063 76.2228 290.579 75.3841C291.147 74.4961 291.43 73.5588 291.43 72.5721V66.2822H282.918C279.203 66.2822 276.495 66.7755 274.793 67.7621C273.09 68.7488 272.239 70.1795 272.239 72.0541V73.6081C272.239 75.5815 272.961 77.0861 274.406 78.1221C275.902 79.1088 277.94 79.6021 280.519 79.6021ZM321.193 83.6721V45.4881H327.383V51.7041H327.693C328.106 50.7668 328.622 49.8788 329.241 49.0401C329.86 48.1521 330.608 47.3875 331.485 46.7461C332.414 46.1048 333.497 45.5868 334.735 45.1921C335.973 44.7975 337.418 44.6001 339.069 44.6001C343.247 44.6001 346.601 45.8828 349.129 48.4481C351.657 50.9641 352.921 54.5408 352.921 59.1781V83.6721H346.73V60.2141C346.73 56.7115 345.93 54.1215 344.331 52.4441C342.732 50.7175 340.384 49.8541 337.289 49.8541C336.051 49.8541 334.838 50.0021 333.652 50.2981C332.465 50.5941 331.408 51.0381 330.479 51.6301C329.55 52.2221 328.802 52.9868 328.235 53.9241C327.667 54.8615 327.383 55.9468 327.383 57.1801V83.6721H321.193Z" fill="black"/>
<path d="M30.9481 57.7721V41.4181H30.329L18.9534 67.9841L7.57774 41.4181H6.95866V57.7721V83.6721H1V32.0201H9.3576L18.876 54.8121H19.3403L28.8587 32.0201H36.9067V83.6721H30.9481V57.7721ZM87.0221 83.6721C84.5974 83.6721 82.8691 83.0801 81.8373 81.8961C80.8055 80.7121 80.1606 79.2321 79.9027 77.4561H79.5157C78.6387 79.6761 77.22 81.4275 75.2596 82.7102C73.3507 83.9435 70.7712 84.5602 67.521 84.5602C63.3423 84.5602 60.0147 83.5241 57.5384 81.4521C55.062 79.3801 53.8239 76.5435 53.8239 72.9422C53.8239 69.3901 55.1652 66.6521 57.8479 64.7281C60.5822 62.8041 64.9673 61.8421 71.0034 61.8421H79.5157V58.0681C79.5157 55.2561 78.6903 53.1595 77.0394 51.7781C75.3885 50.3475 73.0412 49.6321 69.9974 49.6321C67.3147 49.6321 65.1221 50.1501 63.4196 51.1861C61.7172 52.1728 60.35 53.5295 59.3182 55.2561L55.1394 52.2961C55.6553 51.3095 56.3518 50.3475 57.2288 49.4101C58.1059 48.4728 59.1892 47.6588 60.479 46.9681C61.7688 46.2281 63.2391 45.6608 64.8899 45.2661C66.5408 44.8221 68.3723 44.6001 70.3843 44.6001C75.079 44.6001 78.7935 45.7348 81.5278 48.0041C84.3136 50.2735 85.7066 53.4308 85.7066 57.4761V78.4922H91.2783V83.6721H87.0221ZM68.6044 79.6021C70.2037 79.6021 71.6483 79.4295 72.938 79.0841C74.2794 78.6895 75.4401 78.1961 76.4203 77.6041C77.4006 76.9628 78.1486 76.2228 78.6645 75.3841C79.232 74.4961 79.5157 73.5588 79.5157 72.5721V66.2822H71.0034C67.2889 66.2822 64.5804 66.7755 62.8779 67.7621C61.1755 68.7488 60.3242 70.1795 60.3242 72.0541V73.6081C60.3242 75.5815 61.0465 77.0861 62.491 78.1221C63.9871 79.1088 66.0249 79.6021 68.6044 79.6021ZM145.108 88.0382C145.108 91.8862 143.431 94.7228 140.078 96.5482C136.725 98.4228 131.694 99.3602 124.988 99.3602C118.539 99.3602 113.896 98.5462 111.059 96.9182C108.273 95.2901 106.88 92.9468 106.88 89.8882C106.88 87.8162 107.447 86.2128 108.582 85.0781C109.717 83.9435 111.317 83.1048 113.38 82.5621V81.6741C112.245 81.1315 111.368 80.4408 110.749 79.6021C110.13 78.7635 109.82 77.7028 109.82 76.4202C109.82 74.4468 110.491 72.9668 111.832 71.9802C113.225 70.9935 114.954 70.2535 117.017 69.7602V69.4641C114.541 68.4282 112.606 66.8988 111.213 64.8761C109.872 62.8535 109.201 60.4855 109.201 57.7721C109.201 55.8481 109.562 54.0721 110.285 52.4441C111.007 50.8161 112.039 49.4348 113.38 48.3001C114.773 47.1161 116.424 46.2035 118.333 45.5621C120.242 44.9208 122.357 44.6001 124.678 44.6001C127.67 44.6001 130.302 45.1181 132.572 46.1541V45.4881C132.572 44.0081 132.933 42.7748 133.655 41.7881C134.377 40.8015 135.615 40.3081 137.369 40.3081H144.721V45.4881H135.744V48.0781C137.189 49.2621 138.298 50.6681 139.072 52.2961C139.846 53.9241 140.233 55.7495 140.233 57.7721C140.233 59.6961 139.846 61.4721 139.072 63.1001C138.35 64.7281 137.318 66.1341 135.976 67.3181C134.635 68.4528 132.984 69.3408 131.024 69.9822C129.115 70.6235 127 70.9441 124.678 70.9441C124.008 70.9441 123.363 70.9195 122.744 70.8701C122.125 70.8208 121.506 70.7468 120.886 70.6481C120.267 70.7468 119.623 70.9195 118.952 71.1661C118.281 71.3635 117.662 71.6595 117.095 72.0541C116.527 72.3995 116.063 72.8188 115.702 73.3121C115.341 73.8055 115.16 74.3728 115.16 75.0142C115.16 76.1488 115.753 76.9135 116.94 77.3081C118.126 77.6535 119.674 77.8261 121.583 77.8261H130.405C135.564 77.8261 139.304 78.7635 141.626 80.6381C143.947 82.4635 145.108 84.9301 145.108 88.0382ZM139.304 88.3341C139.304 86.8048 138.659 85.5715 137.369 84.6341C136.08 83.7461 133.835 83.3021 130.637 83.3021H116.785C114.102 84.3381 112.761 86.0648 112.761 88.4822C112.761 90.1595 113.458 91.5901 114.85 92.7741C116.243 94.0075 118.565 94.6241 121.815 94.6241H127.851C131.462 94.6241 134.274 94.0815 136.286 92.9961C138.298 91.9601 139.304 90.4061 139.304 88.3341ZM124.678 66.3561C127.774 66.3561 130.044 65.6655 131.488 64.2841C132.984 62.9028 133.732 61.0775 133.732 58.8081V56.6621C133.732 54.3928 132.984 52.5921 131.488 51.2601C130.044 49.8788 127.774 49.1881 124.678 49.1881C121.583 49.1881 119.313 49.8788 117.868 51.2601C116.424 52.5921 115.702 54.3928 115.702 56.6621V58.8081C115.702 61.0775 116.424 62.9028 117.868 64.2841C119.313 65.6655 121.583 66.3561 124.678 66.3561ZM178.354 84.5602C174.175 84.5602 170.564 83.8941 167.52 82.5621C164.528 81.1808 161.974 79.3555 159.859 77.0862L164.038 73.6081C165.946 75.5321 168.036 77.0121 170.306 78.0481C172.576 79.0841 175.31 79.6021 178.509 79.6021C181.604 79.6021 184.132 79.0841 186.092 78.0481C188.104 76.9628 189.11 75.2855 189.11 73.0161C189.11 72.0295 188.904 71.2155 188.491 70.5742C188.13 69.8835 187.614 69.3408 186.944 68.9462C186.273 68.5515 185.525 68.2555 184.699 68.0581C183.874 67.8115 182.997 67.6141 182.068 67.4661L175.8 66.5781C174.407 66.3808 172.885 66.1095 171.234 65.7641C169.635 65.4188 168.165 64.8761 166.823 64.1361C165.482 63.3468 164.347 62.3108 163.419 61.0281C162.541 59.7455 162.103 58.0681 162.103 55.9961C162.103 54.0721 162.49 52.4195 163.264 51.0381C164.089 49.6075 165.224 48.4235 166.669 47.4861C168.113 46.4995 169.816 45.7841 171.776 45.3401C173.737 44.8468 175.878 44.6001 178.199 44.6001C181.81 44.6001 184.932 45.1428 187.563 46.2281C190.245 47.3135 192.541 48.8181 194.45 50.7421L190.426 54.3681C189.962 53.8255 189.368 53.2828 188.646 52.7401C187.975 52.1481 187.124 51.6301 186.092 51.1861C185.112 50.6928 183.951 50.2981 182.61 50.0021C181.269 49.7061 179.721 49.5581 177.967 49.5581C174.82 49.5581 172.395 50.0761 170.693 51.1121C169.042 52.1481 168.216 53.6528 168.216 55.6261C168.216 56.6128 168.397 57.4515 168.758 58.1421C169.171 58.7835 169.713 59.3015 170.383 59.6961C171.054 60.0908 171.802 60.4115 172.627 60.6581C173.504 60.8555 174.381 61.0281 175.258 61.1761L181.527 62.0641C182.971 62.2615 184.493 62.5328 186.092 62.8781C187.692 63.2235 189.162 63.7908 190.503 64.5801C191.845 65.3201 192.954 66.3315 193.831 67.6141C194.76 68.8968 195.224 70.5741 195.224 72.6461C195.224 76.4448 193.676 79.3801 190.581 81.4521C187.537 83.5241 183.461 84.5602 178.354 84.5602ZM211.831 83.6721V45.4881H217.557V49.9281H217.867C218.486 48.4481 219.363 47.1901 220.498 46.1541C221.633 45.1181 223.309 44.6001 225.528 44.6001C227.849 44.6001 229.578 45.1675 230.713 46.3021C231.848 47.3875 232.544 48.8181 232.802 50.5941H233.034C233.756 48.8675 234.788 47.4368 236.13 46.3021C237.471 45.1675 239.328 44.6001 241.701 44.6001C244.952 44.6001 247.118 45.6855 248.202 47.8561C249.337 50.0268 249.904 53.1348 249.904 57.1801V83.6721H244.178V58.1421C244.178 54.8861 243.817 52.6415 243.094 51.4081C242.424 50.1255 241.16 49.4841 239.302 49.4841C237.652 49.4841 236.31 50.0021 235.278 51.0381C234.247 52.0248 233.731 53.5541 233.731 55.6261V83.6721H228.004V58.1421C228.004 54.8861 227.643 52.6415 226.921 51.4081C226.25 50.1255 225.012 49.4841 223.206 49.4841C221.555 49.4841 220.188 50.0021 219.105 51.0381C218.073 52.0248 217.557 53.5541 217.557 55.6261V83.6721H211.831ZM298.937 83.6721C296.512 83.6721 294.784 83.0801 293.752 81.8961C292.72 80.7121 292.075 79.2321 291.817 77.4561H291.43C290.553 79.6761 289.135 81.4275 287.174 82.7102C285.265 83.9435 282.686 84.5602 279.436 84.5602C275.257 84.5602 271.929 83.5241 269.453 81.4521C266.977 79.3801 265.738 76.5435 265.738 72.9422C265.738 69.3901 267.08 66.6521 269.762 64.7281C272.497 62.8041 276.882 61.8421 282.918 61.8421H291.43V58.0681C291.43 55.2561 290.605 53.1595 288.954 51.7781C287.303 50.3475 284.956 49.6321 281.912 49.6321C279.229 49.6321 277.037 50.1501 275.334 51.1861C273.632 52.1728 272.265 53.5295 271.233 55.2561L267.054 52.2961C267.57 51.3095 268.266 50.3475 269.143 49.4101C270.02 48.4728 271.104 47.6588 272.394 46.9681C273.683 46.2281 275.154 45.6608 276.805 45.2661C278.455 44.8221 280.287 44.6001 282.299 44.6001C286.994 44.6001 290.708 45.7348 293.442 48.0041C296.228 50.2735 297.621 53.4308 297.621 57.4761V78.4922H303.193V83.6721H298.937ZM280.519 79.6021C282.118 79.6021 283.563 79.4295 284.853 79.0841C286.194 78.6895 287.355 78.1961 288.335 77.6041C289.315 76.9628 290.063 76.2228 290.579 75.3841C291.147 74.4961 291.43 73.5588 291.43 72.5721V66.2822H282.918C279.203 66.2822 276.495 66.7755 274.793 67.7621C273.09 68.7488 272.239 70.1795 272.239 72.0541V73.6081C272.239 75.5815 272.961 77.0861 274.406 78.1221C275.902 79.1088 277.94 79.6021 280.519 79.6021ZM321.193 83.6721V45.4881H327.383V51.7041H327.693C328.106 50.7668 328.622 49.8788 329.241 49.0401C329.86 48.1521 330.608 47.3875 331.485 46.7461C332.414 46.1048 333.497 45.5868 334.735 45.1921C335.973 44.7975 337.418 44.6001 339.069 44.6001C343.247 44.6001 346.601 45.8828 349.129 48.4481C351.657 50.9641 352.921 54.5408 352.921 59.1781V83.6721H346.73V60.2141C346.73 56.7115 345.93 54.1215 344.331 52.4441C342.732 50.7175 340.384 49.8541 337.289 49.8541C336.051 49.8541 334.838 50.0021 333.652 50.2981C332.465 50.5941 331.408 51.0381 330.479 51.6301C329.55 52.2221 328.802 52.9868 328.235 53.9241C327.667 54.8615 327.383 55.9468 327.383 57.1801V83.6721H321.193Z" stroke="black" stroke-width="2" mask="url(#path-2-outside-2)"/>
</svg>
