<svg width="128" height="128" viewBox="0 0 128 128" fill="none" xmlns="http://www.w3.org/2000/svg">
<g filter="url(#filter0_d)">
<rect x="4" y="4" width="120" height="120" rx="60" fill="white"/>
</g>
<path d="M86.7066 62.0193L52.0313 37.4476C51.6265 37.1603 51.1649 37.0059 50.6937 37.0002C50.2224 36.9944 49.7583 37.1374 49.3486 37.4147C48.9388 37.692 48.5982 38.0936 48.3613 38.5787C48.1244 39.0637 47.9997 39.6148 48 40.1759V88.3346C47.9998 88.8923 48.123 89.4402 48.3572 89.9233C48.5914 90.4063 48.9284 90.8073 49.3343 91.0859C49.7401 91.3645 50.2005 91.5109 50.669 91.5103C51.1375 91.5097 51.5975 91.3622 52.0029 91.0826L51.9911 91.0911L86.6615 67.5041C87.0638 67.2281 87.3987 66.8322 87.6334 66.3553C87.868 65.8784 87.9943 65.337 87.9998 64.7844C88.0053 64.2318 87.8898 63.6869 87.6647 63.2036C87.4396 62.7202 87.1127 62.315 86.7161 62.0277L86.7042 62.0193H86.7066ZM51.9779 88.3346L51.5573 42.0352L52.0029 91.0826L83.5782 64.7278L51.9779 88.3346Z" fill="black"/>
<defs>
<filter id="filter0_d" x="0" y="0" width="128" height="128" filterUnits="userSpaceOnUse" color-interpolation-filters="sRGB">
<feFlood flood-opacity="0" result="BackgroundImageFix"/>
<feColorMatrix in="SourceAlpha" type="matrix" values="0 0 0 0 0 0 0 0 0 0 0 0 0 0 0 0 0 0 127 0"/>
<feOffset/>
<feGaussianBlur stdDeviation="2"/>
<feColorMatrix type="matrix" values="0 0 0 0 0.7625 0 0 0 0 0.7625 0 0 0 0 0.7625 0 0 0 0.14 0"/>
<feBlend mode="normal" in2="BackgroundImageFix" result="effect1_dropShadow"/>
<feBlend mode="normal" in="SourceGraphic" in2="effect1_dropShadow" result="shape"/>
</filter>
</defs>
</svg>
