<svg width="40" height="55" viewBox="0 0 40 55" fill="none" xmlns="http://www.w3.org/2000/svg">
<path d="M38.7066 25.0193L4.03134 0.447593C3.62651 0.160327 3.16494 0.00594263 2.69367 0.000168156C2.2224 -0.00560632 1.75827 0.137435 1.34855 0.414721C0.938833 0.692006 0.598176 1.09363 0.361284 1.57867C0.124393 2.06371 -0.000268301 2.61483 4.3357e-07 3.1759V51.3346C-0.000244878 51.8923 0.122956 52.4402 0.357197 52.9233C0.591438 53.4063 0.928448 53.8073 1.33429 54.0859C1.74013 54.3645 2.20047 54.5109 2.66896 54.5103C3.13745 54.5097 3.59754 54.3622 4.0029 54.0826L3.99105 54.0911L38.6615 30.5041C39.0638 30.2281 39.3987 29.8322 39.6334 29.3553C39.868 28.8784 39.9943 28.337 39.9998 27.7844C40.0053 27.2318 39.8898 26.6869 39.6647 26.2036C39.4396 25.7202 39.1127 25.315 38.7161 25.0277L38.7042 25.0193H38.7066ZM3.97794 51.3346L3.55735 5.03521L4.0029 54.0826L35.5782 27.7278L3.97794 51.3346Z" fill="black"/>
</svg>
